<?xml version="1.0" encoding="iso-8859-1"?>
<!-- Generator: Adobe Illustrator 18.0.0, SVG Export Plug-In . SVG Version: 6.00 Build 0)  -->
<!DOCTYPE svg PUBLIC "-//W3C//DTD SVG 1.1//EN" "http://www.w3.org/Graphics/SVG/1.1/DTD/svg11.dtd">
<svg version="1.1" id="Capa_1" xmlns="http://www.w3.org/2000/svg" xmlns:xlink="http://www.w3.org/1999/xlink" x="0px" y="0px"
	 viewBox="0 0 478.299 478.299" style="enable-background:new 0 0 478.299 478.299;" xml:space="preserve">
<g id="XMLID_66_" fill="#203444">
	<path id="XMLID_76_" d="M317.906,299.21l2.392-54.806l12.078,55.016c0.281,1.278,0.795,2.462,1.349,3.608
		c2.151,4.536,6.155,7.988,11.151,9.218l13.645,3.366l56.589,13.95c1.365,0.335,2.728,0.498,4.076,0.498
		c7.612,0,14.532-5.174,16.442-12.897c2.236-9.093-3.313-18.273-12.398-20.517l-60.003-14.791l-9.818-44.729l15.881,30.805
		l5.003,1.23v-31.326c0-18.843-15.281-34.124-34.124-34.124h-14.572c-18.841,0-34.124,15.281-34.124,34.124v60.86
		c3.787-0.452,7.622-0.756,11.534-0.756C308.087,297.94,313.035,298.456,317.906,299.21z"/>
	<path id="XMLID_75_" d="M438.753,452.46l-27.12-96.613c-2.462-8.781-10.464-14.844-19.581-14.844h-8.696
		c10.254,15.335,16.262,33.749,16.262,53.549c0,13.95-3.03,27.182-8.377,39.165l8.347,29.729
		c2.517,8.977,10.683,14.853,19.574,14.853c1.816,0,3.671-0.249,5.501-0.764C435.479,474.496,441.791,463.275,438.753,452.46z"/>
	<path id="XMLID_74_" d="M246.86,316.081c7.427-5.329,15.624-9.607,24.414-12.678l-18.997-59.395
		c-1.792-5.618-7.014-9.429-12.913-9.429h-9.421c-0.156,0.467-0.211,0.943-0.389,1.403c-5.26,13.497-17.799,21.928-31.366,22.73
		c2.292,1.762,5.019,2.984,8.128,2.984h23.152L246.86,316.081z"/>
	<path id="XMLID_71_" d="M303.006,312.193c-45.867,0-83.053,37.179-83.053,83.053c0,45.867,37.186,83.053,83.053,83.053
		c45.874,0,83.053-37.186,83.053-83.053C386.059,349.372,348.88,312.193,303.006,312.193z M303.006,434.614
		c-21.711,0-39.368-17.659-39.368-39.368c0-21.711,17.657-39.368,39.368-39.368c21.71,0,39.368,17.657,39.368,39.368
		C342.374,416.955,324.715,434.614,303.006,434.614z"/>
	<path id="XMLID_70_" d="M303.006,368.744c-14.253,0-25.809,11.556-25.809,25.808c0,14.253,11.556,25.809,25.809,25.809
		c14.26,0,25.809-11.556,25.809-25.809C328.815,380.3,317.266,368.744,303.006,368.744z"/>
	<path id="XMLID_69_" d="M332.867,196.092c21.89,0,39.633-17.735,39.633-39.625c0-21.897-17.743-39.633-39.633-39.633
		c-21.897,0-39.633,17.736-39.633,39.633C293.234,178.356,310.97,196.092,332.867,196.092z"/>
	<path id="XMLID_68_" d="M87.519,93.285c25.762,0,46.646-20.877,46.646-46.639C134.165,20.877,113.281,0,87.519,0
		c-25.77,0-46.646,20.877-46.646,46.646C40.873,72.408,61.749,93.285,87.519,93.285z"/>
	<path id="XMLID_67_" d="M214.685,230.192c4.006-10.27-1.076-21.835-11.337-25.832l-66.556-25.942l-22.443-45.922l21.914,25.022
		v-15.094c0-22.177-17.986-40.163-40.163-40.163H78.946c-22.177,0-40.163,17.985-40.163,40.163l0.195,311.936
		c0,13.224,10.715,23.939,23.938,23.939c13.226,0,23.939-10.715,23.939-23.939V311.702h15.959V454.36
		c0,6.904-1.909,13.294-4.994,18.96c4.028,3.079,9.007,4.979,14.47,4.979c13.224,0,23.939-10.715,23.939-23.939l0.024-216.205
		l-27.001-10.526l-6.647-2.587c-6.703-2.611-11.261-8.534-12.578-15.103l-11.525-59.925l25.863,52.919
		c2.198,4.503,6.009,8.012,10.677,9.826l73.811,28.771c2.384,0.927,4.831,1.371,7.239,1.371
		C204.08,242.902,211.614,238.079,214.685,230.192z"/>
</g>
<g>
</g>
<g>
</g>
<g>
</g>
<g>
</g>
<g>
</g>
<g>
</g>
<g>
</g>
<g>
</g>
<g>
</g>
<g>
</g>
<g>
</g>
<g>
</g>
<g>
</g>
<g>
</g>
<g>
</g>
</svg>
